<svg xmlns="http://www.w3.org/2000/svg" width="16" height="16" fill="none">
  <path fill="currentColor" d="M12.8 14c-.34 0-.7-.06-1.07-.19V14c0 .55-.2 1.02-.62 1.41-.42.4-.92.59-1.51.59H3.2a2.13 2.13 0 01-1.5-.59A1.87 1.87 0 011.06 14V4.72A2.12 2.12 0 01.29 4 1.81 1.81 0 010 3c0-.45.14-.85.43-1.2a2.15 2.15 0 011.1-.7c.25-.34.56-.6.95-.8A2.72 2.72 0 013.73 0c.6 0 1.13.17 1.6.52A1.88 1.88 0 016.67 0c.3 0 .6.07.9.22A2.25 2.25 0 019.6.28c.33.19.58.44.77.75l.29-.03c.59 0 1.09.2 1.5.59a1.87 1.87 0 01.31 2.44L12.8 4c.89 0 1.64.3 2.27.87.62.59.93 1.3.93 2.13v4a2.8 2.8 0 01-.94 2.13 3.2 3.2 0 01-2.26.87zM10.67 2c-.24 0-.45.07-.65.2A.52.52 0 009.6 2a.93.93 0 00-.32-.7 1.07 1.07 0 00-.75-.3c-.3 0-.55.1-.75.3a.94.94 0 00-.31.7c0-.38-.07-.64-.21-.78-.14-.15-.34-.22-.6-.22-.26 0-.55.14-.86.43a1.4 1.4 0 00-.47 1.07c0-.42-.15-.77-.46-1.06A1.6 1.6 0 003.73 1c-.34 0-.65.1-.92.28a1.5 1.5 0 00-.58.74.24.24 0 01-.05-.01.24.24 0 00-.05-.01c-.3 0-.55.1-.75.3a.95.95 0 00-.31.7c0 .28.1.52.3.71.21.2.46.29.76.29.27 0 .5-.08.7-.25a1.72 1.72 0 001.45.16.4.4 0 00-.01.09c0 .1.02.2.06.27a.5.5 0 00-.06.23c0 .14.05.25.16.35A.53.53 0 004.8 5a.53.53 0 00.38-.15.47.47 0 00.15-.35c.3 0 .66-.08 1.12-.23a.91.91 0 00.37.53c.19.13.4.2.65.2.29 0 .54-.1.75-.29A.93.93 0 008.53 4c0-.15.1-.3.27-.47.18-.16.36-.3.53-.39L9.6 3c0 .28.1.52.3.71.21.2.46.29.76.29s.55-.1.76-.29a.92.92 0 00.31-.7.94.94 0 00-.31-.71 1.06 1.06 0 00-.75-.3zm3.2 5.33c0-.37-.16-.68-.47-.94A1.7 1.7 0 0012.27 6a2.01 2.01 0 00-.54.08v5.84c.2.05.37.08.54.08.44 0 .82-.13 1.13-.39.31-.26.47-.57.47-.94V7.33zM7.47 2v.08V2z" />
</svg>
