<svg width="16" height="16" fill="none" xmlns="http://www.w3.org/2000/svg"><path d="M12.8 14c-.344 0-.7-.063-1.067-.188V14c0 .552-.208 1.023-.625 1.414-.416.39-.92.586-1.508.586H3.2a2.126 2.126 0 0 1-1.508-.586c-.417-.39-.625-.862-.625-1.414V4.719A2.12 2.12 0 0 1 .292 4 1.81 1.81 0 0 1 0 3c0-.448.144-.846.433-1.195a2.15 2.15 0 0 1 1.1-.711c.245-.334.561-.6.95-.797A2.717 2.717 0 0 1 3.733 0c.59 0 1.123.172 1.6.516A1.879 1.879 0 0 1 6.667 0c.31 0 .61.073.9.219C7.877.073 8.2 0 8.533 0c.39 0 .748.094 1.075.281.328.188.586.438.775.75.145-.02.24-.031.284-.031.589 0 1.091.195 1.508.586.417.39.625.862.625 1.414 0 .365-.106.708-.317 1.031.178-.02.284-.031.317-.031.889 0 1.644.292 2.267.875C15.689 5.458 16 6.167 16 7v4c0 .833-.314 1.542-.942 2.125-.627.583-1.38.875-2.258.875zM10.667 2c-.234 0-.45.068-.65.203A.518.518 0 0 0 9.6 2a.933.933 0 0 0-.317-.703A1.07 1.07 0 0 0 8.525 1c-.294 0-.544.099-.75.297A.944.944 0 0 0 7.467 2c0-.375-.07-.635-.209-.781C7.12 1.073 6.922 1 6.667 1c-.267 0-.556.143-.867.43a1.395 1.395 0 0 0-.467 1.07c0-.417-.155-.77-.466-1.063A1.597 1.597 0 0 0 3.733 1c-.344 0-.652.094-.925.281a1.505 1.505 0 0 0-.575.735.242.242 0 0 1-.05-.008.242.242 0 0 0-.05-.008c-.3 0-.552.099-.758.297a.952.952 0 0 0-.308.71c0 .277.102.511.308.704.206.193.458.289.758.289.267 0 .5-.083.7-.25a1.718 1.718 0 0 0 1.45.156.403.403 0 0 0-.016.094c0 .104.022.193.066.266a.501.501 0 0 0-.066.234c0 .135.052.253.158.352A.53.53 0 0 0 4.8 5a.53.53 0 0 0 .375-.148.466.466 0 0 0 .158-.352c.29 0 .661-.078 1.117-.234a.914.914 0 0 0 .367.53c.189.136.405.204.65.204.289 0 .539-.096.75-.29A.925.925 0 0 0 8.533 4c0-.146.09-.302.267-.469.178-.166.356-.297.533-.39L9.6 3c0 .281.103.518.308.71.206.194.456.29.75.29.295 0 .548-.096.759-.29a.917.917 0 0 0 .316-.702.94.94 0 0 0-.316-.711 1.06 1.06 0 0 0-.75-.297zm3.2 5.328c0-.364-.156-.677-.467-.937-.311-.26-.689-.391-1.133-.391a2.01 2.01 0 0 0-.534.078v5.844c.19.052.367.078.534.078.444 0 .822-.13 1.133-.39.311-.261.467-.573.467-.938V7.328zM7.467 2v.078V2z" fill="currentColor"/></svg>