<svg width="16" height="16" fill="none" xmlns="http://www.w3.org/2000/svg">
    <path d="M4.667 12c-.734 0-1.327.6-1.327 1.333 0 .734.593 1.334 1.327 1.334.733 0 1.333-.6 1.333-1.334C6 12.6 5.4 12 4.667 12zm-4-10c0 .367.3.667.666.667H2l2.4 5.06-.9 1.626c-.487.894.153 1.98 1.167 1.98H12c.367 0 .667-.3.667-.666 0-.367-.3-.667-.667-.667H4.667L5.4 8.667h4.967c.5 0 .94-.274 1.166-.687l2.387-4.327a.664.664 0 00-.58-.986H3.473l-.446-.954a.662.662 0 00-.6-.38H1.333c-.366 0-.666.3-.666.667zm10.666 10c-.733 0-1.326.6-1.326 1.333 0 .734.593 1.334 1.326 1.334.734 0 1.334-.6 1.334-1.334 0-.733-.6-1.333-1.334-1.333z" fill="currentColor"/>
</svg>
