<svg width="16" height="16" fill="none" xmlns="http://www.w3.org/2000/svg"><path d="M13.973 1.547c-.055.167-.176.292-.365.375a.96.96 0 0 1-.592.062l-2.68-.671L9.827 3h.091a.61.61 0 0 1 .41.148.45.45 0 0 1 .174.352V15a.892.892 0 0 1-.347.71 1.24 1.24 0 0 1-.82.29H4.668a1.21 1.21 0 0 1-.83-.297c-.224-.198-.337-.432-.337-.703V6c-.972 0-1.798-.292-2.479-.875C.342 4.542.002 3.833.002 3s.34-1.542 1.02-2.125C1.702.292 2.53 0 3.502 0 4.472 0 5.3.292 5.98.875 6.66 1.458 7 2.167 7 3h1.332L9.097.5a.669.669 0 0 1 .2-.29.748.748 0 0 1 .329-.14c.133-.026.237-.041.31-.047.072-.005.2-.007.382-.007l3.1.78c.218.043.379.136.482.282a.5.5 0 0 1 .073.469zM4.668 4.719c.352-.177.632-.417.838-.719h-.838v.719zM3.5 1c-.644 0-1.194.195-1.65.586-.455.39-.683.862-.683 1.414 0 .552.228 1.023.684 1.414.455.39 1.005.586 1.65.586V3.5a.45.45 0 0 1 .172-.352.61.61 0 0 1 .41-.148h1.75c0-.552-.227-1.023-.683-1.414C4.695 1.196 4.145 1 3.5 1zm3.281 3c-.17.427-.44.8-.81 1.117-.372.318-.806.55-1.304.696V7h2.424l.93-3h-1.24zm2.552.594L8.587 7h.747V4.594z" fill="currentColor"/></svg>