<svg xmlns="http://www.w3.org/2000/svg" width="16" height="16" fill="none">
  <path fill="currentColor" d="M13.97 1.55a.62.62 0 01-.36.37.96.96 0 01-.6.06l-2.67-.67L9.83 3h.09a.61.61 0 01.4.15.45.45 0 01.18.35V15a.9.9 0 01-.35.71 1.24 1.24 0 01-.82.29H4.67a1.21 1.21 0 01-.83-.3.91.91 0 01-.34-.7V6c-.97 0-1.8-.3-2.48-.88a2.7 2.7 0 010-4.25C1.7.3 2.53 0 3.5 0s1.8.3 2.48.88A2.7 2.7 0 017 3h1.33L9.1.5a.67.67 0 01.2-.29.75.75 0 01.33-.14 2.97 2.97 0 01.69-.05l3.1.78c.22.04.38.13.48.28a.5.5 0 01.07.47zm-9.3 3.17c.35-.18.63-.42.84-.72h-.84v.72zM3.5 1c-.64 0-1.2.2-1.65.59a1.8 1.8 0 000 2.82c.46.4 1 .59 1.65.59V3.5a.45.45 0 01.17-.35.61.61 0 01.41-.15h1.75a1.8 1.8 0 00-.68-1.41c-.46-.4-1-.59-1.65-.59zm3.28 3c-.17.43-.44.8-.8 1.12-.38.31-.82.55-1.31.7V7h2.42l.93-3H6.78zm2.55.6L8.6 7h.74V4.6z" />
</svg>
