<svg width="16" height="16" fill="none" xmlns="http://www.w3.org/2000/svg">
    <path d="M13.848 6.77l-.912-2.736a1.997 1.997 0 00-1.897-1.367H4.961a1.997 1.997 0 00-1.897 1.367L2.152 6.77A1.333 1.333 0 001.333 8v3.333c0 .492.27.918.667 1.149V14a.667.667 0 00.667.667h.666A.667.667 0 004 14v-1.333h8V14a.666.666 0 00.667.667h.666A.667.667 0 0014 14v-1.518a1.326 1.326 0 00.667-1.149V8a1.333 1.333 0 00-.819-1.23zM4.961 4h6.078c.287 0 .542.183.632.456l.738 2.21H3.59l.737-2.21A.667.667 0 014.961 4zm-1.294 6.667a1.002 1.002 0 01-.382-1.925 1 1 0 11.382 1.925zm8.666 0a1.001 1.001 0 11.002-2.003 1.001 1.001 0 01-.002 2.003z" fill="currentColor"/>
</svg>
