<svg xmlns="http://www.w3.org/2000/svg" width="16" height="16" fill="none">
  <path fill="currentColor" d="M14.77 6.86c.27 0 .5.1.7.33.18.22.28.5.28.81 0 .32-.1.58-.29.8a.89.89 0 01-.7.34h-.11l-.88 5.91c-.04.28-.16.5-.34.68a.88.88 0 01-.63.27H2.95a.88.88 0 01-.63-.27 1.15 1.15 0 01-.34-.68l-.88-5.9H.98a.89.89 0 01-.7-.34A1.2 1.2 0 010 8c0-.32.1-.58.29-.8a.89.89 0 01.7-.34h13.77zM3.73 14a.46.46 0 00.34-.2.6.6 0 00.11-.42l-.24-3.71a.58.58 0 00-.17-.39.44.44 0 00-.36-.14.46.46 0 00-.34.2.61.61 0 00-.12.42l.25 3.71a.59.59 0 00.16.38.44.44 0 00.33.15h.04zm3.16-.57V9.7a.6.6 0 00-.14-.4.44.44 0 00-.35-.17.44.44 0 00-.35.17.6.6 0 00-.14.4v3.72c0 .15.05.29.14.4.1.11.22.17.35.17a.44.44 0 00.35-.17.6.6 0 00.14-.4zm2.95 0V9.7a.6.6 0 00-.14-.4.44.44 0 00-.35-.17.44.44 0 00-.34.17.6.6 0 00-.15.4v3.72c0 .15.05.29.15.4.1.11.2.17.34.17a.44.44 0 00.35-.17.6.6 0 00.14-.4zm2.71.04l.25-3.71a.61.61 0 00-.12-.42.46.46 0 00-.34-.2.44.44 0 00-.35.14.58.58 0 00-.18.39l-.24 3.71c-.01.16.03.3.12.42s.2.19.33.2h.04c.13 0 .24-.05.33-.15a.59.59 0 00.16-.38zM3.66 2.61l-.71 3.68H1.93l.78-3.94c.1-.53.32-.95.68-1.28.36-.33.77-.5 1.23-.5h1.29a.6.6 0 01.14-.4A.44.44 0 016.4 0h2.95c.14 0 .25.06.35.17a.6.6 0 01.14.4h1.29c.46 0 .87.17 1.23.5.36.33.59.75.68 1.28l.78 3.94H12.8l-.7-3.69a1.2 1.2 0 00-.35-.65.86.86 0 00-.61-.25h-1.3a.6.6 0 01-.14.4.44.44 0 01-.35.18H6.4a.44.44 0 01-.35-.17.6.6 0 01-.14-.4H4.62a.86.86 0 00-.6.24c-.19.17-.3.38-.36.65z" />
</svg>
