<svg width="16" height="16" fill="none" xmlns="http://www.w3.org/2000/svg"><g clip-path="url(#clip0)"><path d="M14.765 6.857c.272 0 .504.112.696.335.192.223.289.493.289.808 0 .315-.097.585-.289.808a.888.888 0 0 1-.696.335h-.115l-.884 5.91c-.041.274-.154.5-.339.68a.883.883 0 0 1-.63.267H2.953a.882.882 0 0 1-.63-.268 1.152 1.152 0 0 1-.338-.678L1.1 9.143H.985a.888.888 0 0 1-.696-.335A1.196 1.196 0 0 1 0 8c0-.315.097-.585.289-.808a.888.888 0 0 1 .696-.335h13.78zM3.73 14a.456.456 0 0 0 .335-.2c.09-.123.13-.261.119-.416L3.938 9.67a.582.582 0 0 0-.173-.389.436.436 0 0 0-.358-.138.456.456 0 0 0-.334.2.611.611 0 0 0-.12.416l.247 3.714a.59.59 0 0 0 .157.375.444.444 0 0 0 .335.152h.038zm3.16-.571V9.714a.596.596 0 0 0-.145-.402.443.443 0 0 0-.346-.17.443.443 0 0 0-.346.17.596.596 0 0 0-.147.402v3.715c0 .154.05.288.147.401.097.114.212.17.346.17a.443.443 0 0 0 .346-.17.596.596 0 0 0 .146-.401zm2.954 0V9.714a.596.596 0 0 0-.146-.402.443.443 0 0 0-.346-.17.443.443 0 0 0-.346.17.596.596 0 0 0-.147.402v3.715c0 .154.05.288.147.401.097.114.212.17.346.17a.443.443 0 0 0 .346-.17.596.596 0 0 0 .146-.401zm2.707.044l.246-3.714a.611.611 0 0 0-.12-.415.456.456 0 0 0-.334-.201.436.436 0 0 0-.358.138.582.582 0 0 0-.173.389l-.246 3.714c-.01.155.03.293.12.415s.2.19.334.201h.039c.128 0 .24-.05.334-.152a.59.59 0 0 0 .158-.375zM3.66 2.607l-.715 3.679H1.93l.776-3.938c.098-.524.326-.95.685-1.281.359-.33.769-.496 1.23-.496h1.284c0-.154.05-.288.147-.401A.443.443 0 0 1 6.399 0h2.953c.133 0 .248.057.346.17a.596.596 0 0 1 .146.401h1.284c.461 0 .871.166 1.23.496.36.33.587.757.685 1.281l.777 3.938h-1.016l-.715-3.679a1.207 1.207 0 0 0-.35-.643.865.865 0 0 0-.611-.25H9.844a.596.596 0 0 1-.146.402.443.443 0 0 1-.346.17H6.399a.443.443 0 0 1-.346-.17.596.596 0 0 1-.147-.402H4.622a.865.865 0 0 0-.611.25c-.177.167-.294.381-.35.643z" fill="currentColor"/></g><defs><clipPath id="clip0"><path fill="#fff" d="M0 0h16v16H0z"/></clipPath></defs></svg>