<svg width="17" height="16" fill="none" xmlns="http://www.w3.org/2000/svg">
<path d="M15.0015 6.85714C15.2775 6.85714 15.5132 6.96875 15.7085 7.19196C15.9038 7.41518 16.0015 7.68452 16.0015 8C16.0015 8.31548 15.9038 8.58482 15.7085 8.80804C15.5132 9.03125 15.2775 9.14286 15.0015 9.14286H14.8843L13.9858 15.0536C13.9442 15.3274 13.8296 15.5536 13.6421 15.7321C13.4546 15.9107 13.241 16 13.0015 16H3.00146C2.76188 16 2.54834 15.9107 2.36084 15.7321C2.17334 15.5536 2.05876 15.3274 2.01709 15.0536L1.11865 9.14286H1.00146C0.725423 9.14286 0.489746 9.03125 0.294434 8.80804C0.0991211 8.58482 0.00146484 8.31548 0.00146484 8C0.00146484 7.68452 0.0991211 7.41518 0.294434 7.19196C0.489746 6.96875 0.725423 6.85714 1.00146 6.85714H15.0015ZM3.79053 14C3.92594 13.9881 4.03923 13.9211 4.13037 13.7991C4.22152 13.6771 4.26188 13.5387 4.25146 13.3839L4.00146 9.66964C3.99105 9.51488 3.93245 9.38542 3.82568 9.28125C3.71891 9.17708 3.59782 9.13095 3.4624 9.14286C3.32699 9.15476 3.2137 9.22173 3.12256 9.34375C3.03141 9.46577 2.99105 9.60417 3.00146 9.75893L3.25146 13.4732C3.26188 13.622 3.31527 13.747 3.41162 13.8482C3.50798 13.9494 3.62126 14 3.75146 14H3.79053ZM7.00146 13.4286V9.71429C7.00146 9.55952 6.95199 9.4256 6.85303 9.3125C6.75407 9.1994 6.63688 9.14286 6.50146 9.14286C6.36605 9.14286 6.24886 9.1994 6.1499 9.3125C6.05094 9.4256 6.00146 9.55952 6.00146 9.71429V13.4286C6.00146 13.5833 6.05094 13.7173 6.1499 13.8304C6.24886 13.9435 6.36605 14 6.50146 14C6.63688 14 6.75407 13.9435 6.85303 13.8304C6.95199 13.7173 7.00146 13.5833 7.00146 13.4286ZM10.0015 13.4286V9.71429C10.0015 9.55952 9.95199 9.4256 9.85303 9.3125C9.75407 9.1994 9.63688 9.14286 9.50146 9.14286C9.36605 9.14286 9.24886 9.1994 9.1499 9.3125C9.05094 9.4256 9.00146 9.55952 9.00146 9.71429V13.4286C9.00146 13.5833 9.05094 13.7173 9.1499 13.8304C9.24886 13.9435 9.36605 14 9.50146 14C9.63688 14 9.75407 13.9435 9.85303 13.8304C9.95199 13.7173 10.0015 13.5833 10.0015 13.4286ZM12.7515 13.4732L13.0015 9.75893C13.0119 9.60417 12.9715 9.46577 12.8804 9.34375C12.7892 9.22173 12.6759 9.15476 12.5405 9.14286C12.4051 9.13095 12.284 9.17708 12.1772 9.28125C12.0705 9.38542 12.0119 9.51488 12.0015 9.66964L11.7515 13.3839C11.741 13.5387 11.7814 13.6771 11.8726 13.7991C11.9637 13.9211 12.077 13.9881 12.2124 14H12.2515C12.3817 14 12.495 13.9494 12.5913 13.8482C12.6877 13.747 12.741 13.622 12.7515 13.4732ZM3.72021 2.60714L2.99365 6.28571H1.9624L2.75146 2.34821C2.85042 1.8244 3.08219 1.39732 3.44678 1.06696C3.81136 0.736607 4.22803 0.571429 4.69678 0.571429H6.00146C6.00146 0.416667 6.05094 0.282738 6.1499 0.169643C6.24886 0.0565476 6.36605 0 6.50146 0H9.50146C9.63688 0 9.75407 0.0565476 9.85303 0.169643C9.95199 0.282738 10.0015 0.416667 10.0015 0.571429H11.3062C11.7749 0.571429 12.1916 0.736607 12.5562 1.06696C12.9207 1.39732 13.1525 1.8244 13.2515 2.34821L14.0405 6.28571H13.0093L12.2827 2.60714C12.2254 2.34524 12.1069 2.13095 11.9272 1.96429C11.7476 1.79762 11.5405 1.71429 11.3062 1.71429H10.0015C10.0015 1.86905 9.95199 2.00298 9.85303 2.11607C9.75407 2.22917 9.63688 2.28571 9.50146 2.28571H6.50146C6.36605 2.28571 6.24886 2.22917 6.1499 2.11607C6.05094 2.00298 6.00146 1.86905 6.00146 1.71429H4.69678C4.4624 1.71429 4.25537 1.79762 4.07568 1.96429C3.896 2.13095 3.77751 2.34524 3.72021 2.60714Z" fill="currentColor"/>
</svg>
