<svg xmlns="http://www.w3.org/2000/svg" viewBox="0 0 32 32" fill="none">
  <path fill="currentColor" d="M16 9.6a6.4 6.4 0 100 12.8 6.4 6.4 0 100-12.8zm0 10.57a4.17 4.17 0 010-8.34 4.17 4.17 0 010 8.34zm6.67-12.34a1.5 1.5 0 100 3 1.5 1.5 0 000-3zM28.5 16c0-1.72.02-3.43-.08-5.16-.1-2-.55-3.77-2.01-5.23-1.47-1.47-3.24-1.92-5.24-2.02-1.73-.1-3.44-.08-5.16-.08-1.72 0-3.43-.02-5.15.08-2 .1-3.78.55-5.24 2.02-1.47 1.46-1.92 3.23-2.02 5.23-.1 1.73-.08 3.44-.08 5.16 0 1.72-.01 3.43.08 5.16.1 2 .56 3.77 2.02 5.23 1.46 1.47 3.24 1.92 5.24 2.02 1.72.1 3.43.08 5.15.08 1.73 0 3.44.02 5.16-.08 2-.1 3.77-.55 5.24-2.02 1.46-1.46 1.92-3.23 2.01-5.23.1-1.73.08-3.43.08-5.16zm-2.75 7.37c-.22.57-.5 1-.94 1.43a4 4 0 01-1.43.94c-1.65.66-5.55.51-7.37.51-1.82 0-5.73.15-7.37-.5-.57-.23-1-.5-1.43-.95a4 4 0 01-.95-1.43c-.65-1.64-.5-5.55-.5-7.37 0-1.82-.15-5.73.5-7.37.23-.57.5-1 .95-1.43.44-.44.86-.72 1.43-.95 1.64-.65 5.55-.5 7.37-.5 1.82 0 5.73-.15 7.37.5.57.23 1 .5 1.43.95a4 4 0 01.95 1.43c.65 1.64.5 5.55.5 7.37 0 1.82.15 5.73-.5 7.37z"/>
</svg>
