<svg xmlns="http://www.w3.org/2000/svg" width="16" height="16">
  <path fill="currentColor" d="M8.97 10.4a.13.13 0 00-.18 0L6.98 12.2c-.84.84-2.26.93-3.2 0a2.24 2.24 0 010-3.18L5.6 7.2a.13.13 0 000-.18l-.62-.62a.13.13 0 00-.17 0L2.99 8.23A3.38 3.38 0 107.77 13l1.82-1.82a.13.13 0 000-.17l-.62-.62zM13 3a3.38 3.38 0 00-4.78 0L6.4 4.8a.13.13 0 000 .18l.62.62c.05.05.13.05.18 0L9.02 3.8a2.24 2.24 0 013.2 0c.92.93.83 2.34 0 3.19L10.4 8.79a.13.13 0 000 .18l.62.62c.05.05.13.05.17 0l1.82-1.82A3.38 3.38 0 0013 3zM9.53 5.81a.13.13 0 00-.17 0L5.82 9.35a.13.13 0 000 .18l.62.62c.04.05.12.05.17 0l3.54-3.54a.13.13 0 000-.17l-.62-.62z"/>
</svg>
