<svg width="16" height="16" fill="none" xmlns="http://www.w3.org/2000/svg">
    <path d="M11.667 3c-1.3 0-2.7.267-3.667 1-.967-.733-2.367-1-3.667-1-.966 0-1.993.147-2.853.527-.487.22-.813.693-.813 1.233v7.52a1.33 1.33 0 001.653 1.293 8.237 8.237 0 012.013-.24c1.04 0 2.147.174 3.04.614.4.2.854.2 1.247 0 .893-.447 2-.614 3.04-.614.667 0 1.36.074 2.013.24.84.22 1.654-.42 1.654-1.293V4.76c0-.54-.327-1.013-.814-1.233-.853-.38-1.88-.527-2.846-.527zM14 11.487c0 .42-.387.726-.8.653a8.408 8.408 0 00-1.533-.133c-1.134 0-2.767.433-3.667 1V5.333c.9-.566 2.533-1 3.667-1 .613 0 1.22.06 1.8.187.306.067.533.34.533.653v6.314z" fill="currentColor"/>
    <path d="M9.32 7.34a.492.492 0 01-.473-.347.496.496 0 01.32-.626c1.026-.334 2.353-.44 3.573-.3a.5.5 0 01-.113.993c-1.08-.127-2.26-.027-3.154.26-.053.007-.106.02-.153.02zm0 1.773a.492.492 0 01-.473-.346.496.496 0 01.32-.627c1.02-.333 2.353-.44 3.573-.3a.5.5 0 01-.113.993c-1.08-.126-2.26-.026-3.154.26a.646.646 0 01-.153.02zm0 1.774a.492.492 0 01-.473-.347.496.496 0 01.32-.627c1.02-.333 2.353-.44 3.573-.3a.5.5 0 01.44.554.506.506 0 01-.553.44c-1.08-.127-2.26-.027-3.154.26a.65.65 0 01-.153.02z" fill="currentColor"/>
</svg>
