<svg width="16" height="16" fill="none" xmlns="http://www.w3.org/2000/svg">
<path d="M15.4528 1.64408C14.0448 1.18248 10.4 -0.0119102 10.4 8.9762e-05C10.4 0.636606 10.1471 1.24705 9.69705 1.69714C9.24697 2.14722 8.63652 2.40008 8 2.40008C7.36348 2.40008 6.75303 2.14722 6.30295 1.69714C5.85286 1.24705 5.6 0.636606 5.6 8.9762e-05C5.6 -0.0119102 1.95521 1.18248 0.546411 1.64408C0.386795 1.6964 0.247896 1.79801 0.149708 1.9343C0.0515195 2.07058 -0.000894095 2.23451 1.15414e-05 2.40248V5.37526C4.51095e-05 5.49678 0.027761 5.61669 0.0810558 5.7259C0.134351 5.8351 0.211824 5.93073 0.307594 6.00553C0.403365 6.08033 0.514917 6.13232 0.633783 6.15757C0.752648 6.18282 0.875704 6.18066 0.99361 6.15126L3.20001 5.60006V15.2C3.20001 15.4122 3.28429 15.6157 3.43432 15.7657C3.58435 15.9157 3.78783 16 4.00001 16H12C12.2122 16 12.4157 15.9157 12.5657 15.7657C12.7157 15.6157 12.8 15.4122 12.8 15.2V5.60006L15.0064 6.15126C15.1243 6.18066 15.2474 6.18282 15.3662 6.15757C15.4851 6.13232 15.5966 6.08033 15.6924 6.00553C15.7882 5.93073 15.8657 5.8351 15.9189 5.7259C15.9722 5.61669 16 5.49678 16 5.37526V2.40248C16.0008 2.23441 15.9483 2.07041 15.85 1.93411C15.7516 1.79782 15.6126 1.69626 15.4528 1.64408Z" fill="currentColor"/>
</svg>
