<svg width="16" height="16" fill="none" xmlns="http://www.w3.org/2000/svg">
    <path d="M10.907 9.333C10.96 8.893 11 8.453 11 8c0-.453-.04-.893-.093-1.333h2.253c.107.426.173.873.173 1.333 0 .46-.066.907-.173 1.333h-2.253zm-1.18 3.707c.4-.74.706-1.54.92-2.373h1.966a5.353 5.353 0 01-2.886 2.373zM9.56 9.333H6.44A8.845 8.845 0 016.333 8c0-.453.04-.9.107-1.333h3.12c.06.433.107.88.107 1.333 0 .453-.047.893-.107 1.333zM8 13.307c-.553-.8-1-1.687-1.273-2.64h2.546A9.042 9.042 0 018 13.307zM5.333 5.333H3.387a5.282 5.282 0 012.88-2.373c-.4.74-.7 1.54-.934 2.373zm-1.946 5.334h1.946c.234.833.534 1.633.934 2.373a5.339 5.339 0 01-2.88-2.373zM2.84 9.333A5.494 5.494 0 012.667 8c0-.46.066-.907.173-1.333h2.253C5.04 7.107 5 7.547 5 8c0 .453.04.893.093 1.333H2.84zM8 2.687c.553.8 1 1.693 1.273 2.646H6.727A9.08 9.08 0 018 2.687zm4.613 2.646h-1.966a10.434 10.434 0 00-.92-2.373 5.325 5.325 0 012.886 2.373zM8 1.333c-3.687 0-6.667 3-6.667 6.667A6.666 6.666 0 108 1.333z" fill="currentColor"/>
</svg>
