<svg width="15" height="16" viewBox="0 0 15 16" fill="none" xmlns="http://www.w3.org/2000/svg">
<path d="M14.9331 1.28833V0.666667C14.9331 0.489856 14.8594 0.320287 14.7281 0.195262C14.5969 0.070238 14.4189 0 14.2332 0H1.76129C1.57567 0 1.39765 0.070238 1.26639 0.195262C1.13514 0.320287 1.0614 0.489856 1.0614 0.666667V1.28833C0.997538 1.76208 0.639284 5.06917 2.67682 7.31708C3.76471 8.51708 5.31714 9.18583 7.29738 9.31125V14.6667H3.79795C3.61233 14.6667 3.43431 14.7369 3.30306 14.8619C3.17181 14.987 3.09807 15.1565 3.09807 15.3333C3.09807 15.5101 3.17181 15.6797 3.30306 15.8047C3.43431 15.9298 3.61233 16 3.79795 16H12.1966C12.3822 16 12.5602 15.9298 12.6915 15.8047C12.8227 15.6797 12.8965 15.5101 12.8965 15.3333C12.8965 15.1565 12.8227 14.987 12.6915 14.8619C12.5602 14.7369 12.3822 14.6667 12.1966 14.6667H8.69715V9.31125C10.6774 9.18625 12.2298 8.51708 13.3177 7.31708C15.3552 5.06917 14.9961 1.76208 14.9331 1.28833V1.28833ZM2.4533 1.43042C2.45855 1.3983 2.46118 1.36584 2.46117 1.33333H13.5334C13.5333 1.36584 13.536 1.3983 13.5412 1.43042C13.6168 2.06268 13.6168 2.70107 13.5412 3.33333H2.45592C2.38038 2.70112 2.3795 2.06282 2.4533 1.43042V1.43042Z" fill="currentColor"/>
</svg>
