<svg xmlns="http://www.w3.org/2000/svg" width="16" height="16" fill="none">
  <path fill="currentColor" d="M15.93 1.29V.67a.62.62 0 00-.24-.47.89.89 0 00-.56-.2H.87a.89.89 0 00-.56.2.62.62 0 00-.24.47v.62C0 1.76-.4 5.07 1.92 7.32c1.24 1.2 3.02 1.87 5.28 2v5.35h-4a.89.89 0 00-.57.2.62.62 0 00-.23.46c0 .18.09.35.24.48.15.12.35.19.56.19h9.6c.21 0 .42-.07.57-.2a.62.62 0 00.23-.47.62.62 0 00-.23-.47.89.89 0 00-.57-.2h-4V9.32c2.26-.13 4.04-.8 5.28-2C16.41 5.08 16 1.77 15.93 1.3zm-14.27.14a.53.53 0 00.01-.1h12.66v.1c.1.63.1 1.27 0 1.9H1.68a7.1 7.1 0 010-1.9z" />
</svg>
