<svg width="16" height="16" fill="none" xmlns="http://www.w3.org/2000/svg"><path d="M15.927 1.288V.667a.616.616 0 0 0-.234-.472.887.887 0 0 0-.566-.195H.873a.887.887 0 0 0-.565.195.616.616 0 0 0-.234.472v.621C0 1.762-.41 5.07 1.92 7.318c1.243 1.2 3.017 1.868 5.28 1.993v5.356H3.201a.888.888 0 0 0-.566.195.616.616 0 0 0-.234.471c0 .177.084.347.234.472.15.125.354.195.566.195h9.598c.213 0 .416-.07.566-.195a.616.616 0 0 0 .234-.472.616.616 0 0 0-.234-.471.887.887 0 0 0-.566-.195H8.8V9.31c2.263-.125 4.037-.794 5.28-1.994C16.41 5.07 16 1.762 15.928 1.288zM1.664 1.43a.528.528 0 0 0 .01-.097h12.653c0 .033.003.065.01.097.085.633.085 1.271 0 1.903H1.666a7.104 7.104 0 0 1-.003-1.903z" fill="currentColor"/></svg>