<svg version="1" xmlns="http://www.w3.org/2000/svg" width="933.333" height="933.333" viewBox="0 0 700.000000 700.000000"><path d="M223.3 69.6c-17.8 3.7-33.9 20.1-37.2 37.9-.5 2.7-1 20.3-1.1 38.9v34l-8.2 15c-4.5 8.3-8.9 16.4-9.8 18.1-5.1 9.1-8.7 15.6-17 31-5.1 9.3-11.3 20.6-13.7 25-9.3 16.8-9.5 17.5-9.5 29.3 0 5.9 0 11.2.1 11.8.1.9 42.1 1.2 160.2 1.2 106.3 0 160.4.3 160.8 1 .4.8.6 275.4.2 280.7-.1 1.1-281.2 1.5-282.1.4-.3-.4-.5-20.1-.4-43.8l.1-43.1-2.6-.1c-10.4-.3-35.1 0-35.8.4-.6.4-1 114.4-.4 124.7.1 1.3 27.2 1.5 238 1.5 130.9 0 238.3-.3 238.6-.7.4-.4.7-78.3.7-173.1V287.3l-27-49.4c-14.8-27.2-28-51.3-29.2-53.6-2.1-4-2.1-5.4-2.4-40.5-.2-36.3-.2-36.3-2.8-43.1-6-15.8-17.7-26.5-33.6-30.8-5.8-1.5-17.6-1.7-143-1.7-109.1 0-138 .3-142.9 1.4zm279.9 40.3l3.3 2.9v52.7l-141.1.1H224.2v-25.5c0-27.4.4-29.6 5.2-32 1.4-.6 48.2-1 136.3-1L500 107l3.2 2.9zM493 204.8c0 .5-5.2 10.1-23.3 43.2l-13.3 24.5-138.7.2-138.8.3 1.2-2.3c.7-1.2 3.3-6 5.9-10.7 2.6-4.7 6.6-12.1 9-16.5 13.3-24.7 20.3-37.1 21.4-38 1.2-.9 276.6-1.6 276.6-.7zm38.5 30.7c2.7 4.9 5.9 10.8 7.1 13 3 5.3 5.7 10.2 11.2 20.5 2.5 4.7 4.8 8.9 5.2 9.5.4.5 2.8 5 5.4 9.8l4.7 8.9v148.1c0 90.2-.4 148.3-1 148.6-.7.5-73.3.6-76.3.2-.3-.1-.6-66.8-.7-148.3V297.6l9.8-18.1c5.5-9.9 12-22.1 14.6-27 2.7-5 5.1-9.5 5.5-10 .4-.6 2.2-3.7 4-7 3.9-7 5.4-9.5 5.6-9.2.1.1 2.3 4.2 4.9 9.2z"/><path d="M196.3 350.8c-102.2.2-108.3.3-108.4 2-.1 2.1-.1 34.2 0 35.9.1.9 16.2 1.2 68.7 1.2 37.7-.1 68.8.1 69 .3.2.3-.8 2-2.2 3.9-4.6 6.2-9.6 15.8-12.9 25.2l-3.3 9.2-39.2.2c-21.6.1-39.8.4-40.4.6-.8.3-1.1 6.2-1 19.3l.1 18.9 39.2.1c21.5.1 39.3.3 39.4.5.2.2 1.4 4.7 2.6 9.9 13.2 54.6 70.1 88.3 125.1 74.1 39.3-10.2 69.7-44.6 75.5-85.3.6-4.1.7-24.7.1-25.6-.2-.4-.7-3.1-1-6.1-1.3-10.8-8.1-27.4-16.3-39.9-2.1-3.2-7.4-9.4-11.8-13.8-18.2-18.5-42.9-29.5-67.9-30.3-3.3-.1-6.2-.3-6.5-.4-.3-.1-49.3-.1-108.8.1zm169.2 67.8c11.4 11.4 13.4 13.8 12.3 15.1-.6.8-20.7 21-44.6 44.9L289.8 522l-28.9-28.9C245 477.2 232 463.8 232 463.3c0-.4 6-6.8 13.4-14.1l13.3-13.3 15.1 15c8.3 8.3 15.4 15.1 15.9 15.1s14.6-13.7 31.3-30.5c16.8-16.8 30.6-30.5 30.7-30.5.1 0 6.3 6.1 13.8 13.6z"/></svg>