<svg width="340" height="340" viewBox="0 0 340 340" fill="none" xmlns="http://www.w3.org/2000/svg">
<g clip-path="url(#clip0)">
<path fill-rule="evenodd" clip-rule="evenodd" d="M93.7804 80.4667H99.4001H255.6H261.22L263.911 85.4002L292.311 137.467L293.467 139.586V142V298.2V307.667H284H227.2H71.0001H61.5334V298.2V246.036C62.3138 246.101 63.1032 246.133 63.9002 246.133H80.4668V288.733H217.733V151.467H127.86L127.8 151.467L61.5334 151.467V142C61.5334 140.416 61.9309 138.857 62.6894 137.467L91.0894 85.4002L93.7804 80.4667ZM105.02 99.4L86.9471 132.533H221.58L239.653 99.4H105.02ZM255.6 109.703L236.667 144.414V288.733H274.533V144.414L255.6 109.703Z" fill="#E7E7E7"/>
<path d="M255.6 92.3V56.8C255.6 48.9575 249.242 42.6 241.4 42.6H113.6C105.758 42.6 99.4 48.9575 99.4 56.8V92.3" stroke="#E7E7E7" stroke-width="18.9333"/>
<mask id="path-5-inside-1" fill="white">
<path fill-rule="evenodd" clip-rule="evenodd" d="M149.1 269.8C176.549 269.8 198.8 247.549 198.8 220.1C198.8 192.651 176.549 170.4 149.1 170.4C121.651 170.4 99.4 192.651 99.4 220.1C99.4 247.549 121.651 269.8 149.1 269.8ZM132.414 218.427L125.72 211.733L112.333 225.12L119.027 231.814L134.088 246.876L140.782 253.57L147.476 246.876L177.599 216.753L184.292 210.059L170.905 196.671L164.211 203.365L140.782 226.794L132.414 218.427Z"/>
</mask>
<path fill-rule="evenodd" clip-rule="evenodd" d="M149.1 269.8C176.549 269.8 198.8 247.549 198.8 220.1C198.8 192.651 176.549 170.4 149.1 170.4C121.651 170.4 99.4 192.651 99.4 220.1C99.4 247.549 121.651 269.8 149.1 269.8ZM132.414 218.427L125.72 211.733L112.333 225.12L119.027 231.814L134.088 246.876L140.782 253.57L147.476 246.876L177.599 216.753L184.292 210.059L170.905 196.671L164.211 203.365L140.782 226.794L132.414 218.427Z" fill="#4BD37B"/>
<path d="M125.72 211.733L135.761 201.692L125.72 191.651L115.68 201.692L125.72 211.733ZM132.414 218.427L122.373 228.467L122.373 228.467L132.414 218.427ZM112.333 225.12L102.292 215.08L92.2507 225.12L102.292 235.161L112.333 225.12ZM119.027 231.814L129.067 221.774L129.067 221.774L119.027 231.814ZM134.088 246.876L124.047 256.917L124.047 256.917L134.088 246.876ZM140.782 253.57L130.741 263.611L140.782 273.652L150.823 263.611L140.782 253.57ZM147.476 246.876L137.435 236.835L137.435 236.835L147.476 246.876ZM177.599 216.753L187.639 226.794L187.639 226.794L177.599 216.753ZM184.292 210.059L194.333 220.1L204.374 210.059L194.333 200.018L184.292 210.059ZM170.905 196.671L180.945 186.63L170.905 176.589L160.864 186.63L170.905 196.671ZM164.211 203.365L154.17 193.324L154.17 193.324L164.211 203.365ZM140.782 226.794L130.741 236.835L140.782 246.876L150.823 236.835L140.782 226.794ZM184.6 220.1C184.6 239.706 168.706 255.6 149.1 255.6V284C184.391 284 213 255.391 213 220.1H184.6ZM149.1 184.6C168.706 184.6 184.6 200.494 184.6 220.1H213C213 184.809 184.391 156.2 149.1 156.2V184.6ZM113.6 220.1C113.6 200.494 129.494 184.6 149.1 184.6V156.2C113.809 156.2 85.2 184.809 85.2 220.1H113.6ZM149.1 255.6C129.494 255.6 113.6 239.706 113.6 220.1H85.2C85.2 255.391 113.809 284 149.1 284V255.6ZM115.68 221.774L122.373 228.467L142.455 208.386L135.761 201.692L115.68 221.774ZM122.373 235.161L135.761 221.774L115.68 201.692L102.292 215.08L122.373 235.161ZM129.067 221.774L122.373 215.08L102.292 235.161L108.986 241.855L129.067 221.774ZM144.129 236.835L129.067 221.774L108.986 241.855L124.047 256.917L144.129 236.835ZM150.823 243.529L144.129 236.835L124.047 256.917L130.741 263.611L150.823 243.529ZM137.435 236.835L130.741 243.529L150.823 263.611L157.517 256.917L137.435 236.835ZM167.558 206.712L137.435 236.835L157.517 256.917L187.639 226.794L167.558 206.712ZM174.252 200.018L167.558 206.712L187.639 226.794L194.333 220.1L174.252 200.018ZM160.864 206.712L174.252 220.1L194.333 200.018L180.945 186.63L160.864 206.712ZM174.252 213.406L180.945 206.712L160.864 186.63L154.17 193.324L174.252 213.406ZM150.823 236.835L174.252 213.406L154.17 193.324L130.741 216.753L150.823 236.835ZM122.373 228.467L130.741 236.835L150.823 216.753L142.455 208.386L122.373 228.467Z" fill="#4BD37B" mask="url(#path-5-inside-1)"/>
<path d="M142 179.867L52.0667 179.867" stroke="#4BD37B" stroke-width="18.9333" stroke-linecap="square"/>
<path d="M101.767 217.733L70.9999 217.733" stroke="#4BD37B" stroke-width="18.9333" stroke-linecap="square"/>
</g>
<defs>
<clipPath id="clip0">
<rect width="340" height="340" fill="white"/>
</clipPath>
</defs>
</svg>
